<?xml version="1.0" standalone="no"?>
<!DOCTYPE svg PUBLIC "-//W3C//DTD SVG 20010904//EN"
 "http://www.w3.org/TR/2001/REC-SVG-20010904/DTD/svg10.dtd">
<svg version="1.0" xmlns="http://www.w3.org/2000/svg"
 width="2500.000000pt" height="2500.000000pt" viewBox="0 0 2500.000000 2500.000000"
 preserveAspectRatio="xMidYMid meet">
<metadata>
Created by potrace 1.14, written by Peter Selinger 2001-2017
</metadata>
<g transform="translate(0.000000,2500.000000) scale(0.100000,-0.100000)"
fill="#000000" stroke="none">
<path d="M12457 24454 c-1 -1 -33 -4 -72 -7 -182 -16 -314 -52 -472 -128 -141
-68 -240 -138 -353 -249 -170 -168 -169 -165 -730 -1305 -409 -830 -846 -1716
-1150 -2330 -128 -258 -297 -600 -375 -760 -78 -159 -243 -492 -365 -740 -563
-1140 -527 -1072 -645 -1215 -208 -250 -505 -416 -835 -466 -25 -3 -54 -8 -65
-10 -20 -4 -66 -10 -137 -19 -24 -3 -68 -10 -98 -15 -60 -11 -112 -18 -175
-25 -22 -3 -51 -7 -65 -10 -14 -3 -45 -7 -70 -10 -25 -3 -72 -10 -105 -15 -33
-5 -76 -12 -95 -14 -19 -3 -100 -15 -180 -27 -80 -11 -158 -23 -175 -25 -16
-2 -48 -6 -70 -10 -22 -4 -51 -8 -65 -9 -14 -2 -41 -6 -60 -9 -19 -3 -84 -13
-145 -21 -60 -9 -121 -18 -135 -20 -14 -2 -45 -7 -70 -10 -80 -11 -102 -14
-305 -44 -110 -16 -220 -32 -245 -36 -25 -3 -52 -8 -60 -10 -8 -2 -42 -6 -75
-10 -33 -3 -67 -8 -75 -10 -8 -2 -37 -6 -65 -10 -43 -5 -115 -16 -205 -30 -14
-2 -45 -7 -70 -10 -47 -6 -65 -9 -140 -20 -25 -4 -56 -8 -70 -10 -182 -26
-237 -34 -270 -40 -14 -3 -47 -7 -75 -11 -27 -3 -61 -7 -75 -9 -126 -20 -161
-25 -200 -30 -25 -3 -56 -8 -70 -10 -14 -3 -38 -7 -55 -9 -80 -12 -122 -18
-146 -22 -15 -2 -45 -6 -67 -9 -22 -3 -102 -14 -178 -25 -77 -11 -155 -23
-174 -25 -20 -3 -45 -7 -55 -9 -11 -2 -42 -7 -70 -10 -55 -7 -119 -16 -150
-22 -11 -2 -40 -6 -65 -9 -40 -5 -144 -20 -209 -30 -13 -3 -45 -7 -70 -11 -25
-3 -57 -8 -71 -10 -14 -2 -45 -6 -70 -9 -25 -3 -67 -10 -95 -15 -27 -5 -72
-12 -100 -15 -50 -6 -218 -30 -285 -41 -19 -3 -51 -7 -70 -10 -19 -2 -48 -6
-65 -9 -16 -2 -48 -7 -70 -10 -22 -3 -51 -8 -65 -11 -14 -2 -43 -7 -65 -9 -22
-3 -103 -15 -180 -26 -77 -11 -156 -23 -175 -25 -205 -26 -423 -102 -585 -206
-137 -87 -285 -233 -383 -376 -83 -123 -188 -376 -207 -502 -20 -137 -23 -176
-20 -295 2 -71 6 -146 9 -165 13 -83 59 -244 92 -320 30 -68 106 -205 136
-245 81 -107 189 -217 575 -592 61 -59 236 -229 388 -378 152 -148 337 -328
411 -400 73 -71 261 -254 416 -406 156 -152 320 -312 365 -355 70 -68 268
-261 788 -769 62 -60 240 -234 396 -386 156 -152 336 -327 399 -389 63 -62
238 -232 389 -379 648 -631 712 -696 793 -821 86 -133 175 -358 194 -490 1 -8
5 -37 9 -65 16 -112 12 -290 -10 -415 -3 -19 -8 -46 -10 -60 -13 -82 -16 -96
-20 -110 -2 -8 -6 -35 -9 -60 -3 -25 -8 -56 -11 -70 -4 -22 -10 -54 -31 -170
-2 -14 -13 -81 -25 -150 -11 -69 -22 -136 -25 -150 -2 -14 -25 -144 -49 -290
-25 -146 -50 -287 -55 -315 -5 -27 -12 -63 -14 -80 -10 -60 -46 -271 -51 -295
-3 -14 -8 -41 -10 -60 -8 -50 -14 -91 -20 -120 -5 -26 -8 -41 -26 -145 -6 -33
-12 -71 -15 -85 -2 -14 -7 -45 -10 -70 -3 -25 -8 -47 -9 -50 -2 -3 -6 -26 -10
-50 -3 -25 -12 -81 -20 -125 -8 -44 -17 -96 -20 -115 -3 -19 -8 -48 -11 -63
-3 -16 -7 -38 -8 -50 -2 -12 -6 -35 -9 -52 -3 -16 -9 -46 -11 -65 -3 -19 -8
-46 -10 -60 -4 -20 -38 -214 -90 -520 -3 -14 -7 -41 -10 -60 -3 -19 -8 -46
-10 -60 -3 -14 -19 -108 -36 -209 -18 -102 -34 -194 -36 -205 -5 -25 -51 -298
-69 -408 -3 -18 -14 -82 -25 -143 -11 -60 -22 -127 -26 -149 -3 -21 -8 -48
-10 -60 -5 -27 -63 -363 -75 -441 -6 -33 -12 -71 -15 -85 -2 -14 -7 -41 -9
-60 -3 -19 -10 -57 -16 -85 -5 -27 -12 -66 -15 -85 -3 -19 -10 -60 -15 -90 -6
-30 -12 -67 -14 -81 -2 -14 -20 -120 -40 -235 -20 -115 -38 -222 -41 -239 -3
-16 -14 -79 -26 -140 -22 -120 -32 -352 -18 -445 4 -30 11 -75 15 -100 19
-123 106 -336 192 -467 110 -170 281 -331 460 -433 141 -81 329 -149 453 -165
30 -4 58 -9 62 -11 18 -11 273 -4 363 10 178 27 310 79 610 239 55 29 168 88
250 131 83 43 177 93 210 111 33 18 114 60 180 95 66 34 152 80 190 100 72 38
206 109 375 197 52 28 145 76 205 108 61 32 157 82 215 113 58 30 148 77 200
105 52 27 142 74 200 105 58 30 137 72 175 92 68 37 150 79 385 202 276 145
329 173 395 208 39 21 120 63 180 95 61 32 142 74 180 95 39 20 133 70 210
110 77 40 172 89 210 110 39 21 120 63 180 95 233 122 323 169 400 210 44 23
139 73 210 110 72 37 200 105 285 150 444 236 695 364 763 390 157 59 302 84
482 85 120 0 149 -3 315 -36 58 -12 209 -68 284 -105 103 -52 316 -163 381
-199 28 -15 113 -60 190 -100 77 -40 172 -90 210 -110 66 -35 195 -104 275
-146 19 -10 37 -18 40 -19 3 0 34 -17 70 -37 36 -19 119 -64 185 -98 66 -34
162 -84 213 -111 50 -27 134 -71 185 -98 50 -27 151 -79 222 -117 72 -37 157
-82 190 -100 33 -17 119 -62 190 -99 72 -37 161 -85 198 -106 38 -22 74 -39
81 -39 7 0 16 -4 22 -9 12 -12 60 -38 269 -146 94 -48 184 -95 200 -105 17 -9
96 -52 177 -94 81 -42 176 -91 210 -109 35 -19 117 -62 183 -97 143 -75 284
-149 380 -200 39 -21 129 -68 200 -105 125 -65 195 -102 405 -213 52 -27 140
-73 195 -102 55 -29 136 -72 180 -95 44 -23 134 -71 200 -105 113 -58 215
-112 380 -200 264 -140 518 -193 800 -166 149 14 386 89 487 153 21 12 40 23
43 23 12 0 131 84 190 133 200 167 345 380 420 617 15 47 29 94 31 105 2 11 6
31 9 45 15 69 20 148 19 280 -1 119 -8 183 -38 355 -38 222 -43 249 -51 293
-3 15 -21 122 -40 237 -37 216 -42 246 -49 280 -2 11 -7 40 -11 65 -4 25 -9
52 -10 60 -1 8 -6 35 -10 60 -4 25 -9 54 -11 65 -6 33 -23 128 -29 163 -10 60
-14 87 -30 177 -9 50 -18 106 -21 125 -2 19 -9 59 -15 89 -6 30 -12 64 -14 75
-1 12 -10 64 -19 116 -10 52 -19 106 -21 120 -8 52 -36 216 -41 240 -3 14 -7
36 -9 50 -5 37 -15 92 -20 120 -3 14 -7 41 -10 60 -3 19 -8 42 -10 50 -2 8 -6
33 -10 55 -3 22 -21 132 -41 245 -19 113 -37 219 -40 235 -2 17 -11 66 -19
110 -8 44 -17 96 -20 115 -3 19 -7 46 -10 60 -3 14 -7 39 -9 55 -3 17 -14 84
-26 150 -40 230 -142 830 -146 860 -3 17 -10 54 -15 84 -6 30 -12 64 -14 75
-1 12 -10 64 -19 116 -10 52 -19 109 -22 125 -2 17 -7 41 -9 55 -11 53 -13 69
-20 121 -4 30 -8 56 -10 59 -2 3 -6 24 -9 46 -4 22 -9 51 -11 64 -3 14 -8 41
-11 60 -3 19 -17 100 -30 180 -14 80 -29 170 -35 200 -5 30 -12 75 -15 100 -3
25 -8 48 -10 51 -2 4 -8 35 -13 70 -5 35 -24 143 -40 239 -38 215 -45 278 -45
400 0 128 11 205 44 330 54 201 114 324 243 495 39 51 323 332 1102 1089 55
54 233 227 395 386 162 158 333 325 380 370 47 45 227 220 400 390 173 169
352 343 397 386 45 44 213 208 375 366 161 157 347 339 413 403 66 64 255 248
419 408 165 161 382 373 484 472 323 314 376 368 433 440 103 130 183 280 229
430 17 56 23 82 35 145 3 14 7 36 11 50 12 53 12 307 -1 390 -20 126 -44 224
-65 262 -6 10 -10 23 -10 29 0 17 -77 178 -112 234 -142 225 -344 406 -568
508 -141 65 -284 104 -445 122 -33 4 -62 9 -65 10 -3 2 -33 7 -65 10 -33 4
-62 9 -65 10 -3 2 -33 6 -65 10 -33 3 -67 8 -75 10 -8 2 -33 6 -55 9 -51 7
-241 34 -280 41 -29 4 -152 21 -225 31 -19 3 -60 9 -90 14 -30 5 -77 12 -105
15 -27 3 -61 8 -75 10 -32 6 -65 11 -165 25 -44 6 -91 13 -105 16 -14 2 -88
13 -165 24 -77 10 -156 22 -176 25 -20 3 -51 7 -70 9 -19 2 -77 11 -129 19
-52 9 -115 19 -140 22 -25 3 -72 10 -105 15 -33 5 -80 12 -105 15 -25 3 -63 8
-85 12 -22 3 -49 7 -60 8 -22 3 -95 14 -135 20 -28 4 -229 34 -275 40 -77 11
-243 35 -265 39 -14 3 -47 7 -75 11 -27 3 -79 10 -115 16 -36 6 -78 12 -95 14
-16 2 -46 7 -65 10 -19 3 -48 7 -65 9 -16 2 -79 12 -140 21 -60 9 -123 18
-140 20 -16 2 -91 13 -165 24 -74 11 -155 23 -180 26 -25 3 -52 7 -60 10 -8 2
-42 7 -75 10 -33 3 -69 8 -80 10 -11 3 -38 7 -60 10 -22 3 -71 10 -110 16 -38
6 -88 12 -110 15 -22 3 -51 7 -65 10 -35 6 -156 24 -206 30 -23 3 -53 7 -65 9
-13 3 -44 8 -69 11 -25 3 -52 8 -60 9 -9 2 -43 6 -75 10 -33 4 -67 9 -77 11
-9 1 -38 6 -65 10 -26 3 -55 8 -63 9 -40 7 -98 16 -130 20 -19 2 -129 18 -245
35 -115 17 -226 33 -245 36 -19 2 -50 6 -67 9 -32 5 -60 9 -139 20 -196 28
-426 123 -595 246 -89 65 -227 200 -269 262 -14 20 -28 37 -32 37 -5 0 -8 4
-8 9 0 5 -16 33 -35 62 -35 54 -80 142 -460 914 -607 1229 -829 1680 -1168
2365 -115 234 -289 587 -387 785 -176 358 -448 909 -750 1520 -166 336 -207
406 -300 520 -222 269 -554 444 -895 471 -73 6 -175 10 -178 8z"/>
</g>
</svg>
